<mxfile host="app.diagrams.net" modified="2023-02-11T12:29:14.958Z" agent="5.0 (Windows)" etag="feaMuQIWlyG8TOim3ihn" version="20.8.20" type="github">
  <diagram id="7Xo66sbQIgRx5lrrfv0m" name="Page-1">
    <mxGraphModel dx="1050" dy="566" grid="1" gridSize="10" guides="1" tooltips="1" connect="1" arrows="1" fold="1" page="1" pageScale="1" pageWidth="1654" pageHeight="1169" math="0" shadow="0">
      <root>
        <mxCell id="0" />
        <mxCell id="1" parent="0" />
        <mxCell id="30Mocu9UOzXaOLm93GjV-21" value="" style="group" parent="1" vertex="1" connectable="0">
          <mxGeometry x="130" y="80" width="377.5" height="620" as="geometry" />
        </mxCell>
        <mxCell id="30Mocu9UOzXaOLm93GjV-1" value="Mulai" style="ellipse;whiteSpace=wrap;html=1;" parent="30Mocu9UOzXaOLm93GjV-21" vertex="1">
          <mxGeometry x="37.5" width="120" height="50" as="geometry" />
        </mxCell>
        <mxCell id="30Mocu9UOzXaOLm93GjV-3" value="Mengidentifikasi masalah dan tujuan penelitian." style="rounded=0;whiteSpace=wrap;html=1;" parent="30Mocu9UOzXaOLm93GjV-21" vertex="1">
          <mxGeometry x="37.5" y="80" width="120" height="60" as="geometry" />
        </mxCell>
        <mxCell id="30Mocu9UOzXaOLm93GjV-4" style="edgeStyle=orthogonalEdgeStyle;rounded=0;orthogonalLoop=1;jettySize=auto;html=1;entryX=0.5;entryY=0;entryDx=0;entryDy=0;" parent="30Mocu9UOzXaOLm93GjV-21" source="30Mocu9UOzXaOLm93GjV-1" target="30Mocu9UOzXaOLm93GjV-3" edge="1">
          <mxGeometry relative="1" as="geometry" />
        </mxCell>
        <mxCell id="30Mocu9UOzXaOLm93GjV-5" value="Melakukan studi literatur." style="rounded=0;whiteSpace=wrap;html=1;" parent="30Mocu9UOzXaOLm93GjV-21" vertex="1">
          <mxGeometry x="37.5" y="170" width="120" height="60" as="geometry" />
        </mxCell>
        <mxCell id="30Mocu9UOzXaOLm93GjV-6" style="edgeStyle=orthogonalEdgeStyle;rounded=0;orthogonalLoop=1;jettySize=auto;html=1;entryX=0.5;entryY=0;entryDx=0;entryDy=0;" parent="30Mocu9UOzXaOLm93GjV-21" source="30Mocu9UOzXaOLm93GjV-3" target="30Mocu9UOzXaOLm93GjV-5" edge="1">
          <mxGeometry relative="1" as="geometry" />
        </mxCell>
        <mxCell id="30Mocu9UOzXaOLm93GjV-7" value="Mengidentifikasi variabel terkait kondisi kesehatan mental mahasiswa IISMA." style="rounded=0;whiteSpace=wrap;html=1;" parent="30Mocu9UOzXaOLm93GjV-21" vertex="1">
          <mxGeometry x="30" y="260" width="135" height="60" as="geometry" />
        </mxCell>
        <mxCell id="30Mocu9UOzXaOLm93GjV-8" style="edgeStyle=orthogonalEdgeStyle;rounded=0;orthogonalLoop=1;jettySize=auto;html=1;entryX=0.5;entryY=0;entryDx=0;entryDy=0;" parent="30Mocu9UOzXaOLm93GjV-21" source="30Mocu9UOzXaOLm93GjV-5" target="30Mocu9UOzXaOLm93GjV-7" edge="1">
          <mxGeometry relative="1" as="geometry" />
        </mxCell>
        <mxCell id="30Mocu9UOzXaOLm93GjV-9" value="Menyusun kuesioner." style="rounded=0;whiteSpace=wrap;html=1;" parent="30Mocu9UOzXaOLm93GjV-21" vertex="1">
          <mxGeometry x="37.5" y="350" width="120" height="60" as="geometry" />
        </mxCell>
        <mxCell id="30Mocu9UOzXaOLm93GjV-10" style="edgeStyle=orthogonalEdgeStyle;rounded=0;orthogonalLoop=1;jettySize=auto;html=1;entryX=0.5;entryY=0;entryDx=0;entryDy=0;" parent="30Mocu9UOzXaOLm93GjV-21" source="30Mocu9UOzXaOLm93GjV-7" target="30Mocu9UOzXaOLm93GjV-9" edge="1">
          <mxGeometry relative="1" as="geometry" />
        </mxCell>
        <mxCell id="30Mocu9UOzXaOLm93GjV-11" value="Melakukan pilot studi." style="rounded=0;whiteSpace=wrap;html=1;" parent="30Mocu9UOzXaOLm93GjV-21" vertex="1">
          <mxGeometry x="37.5" y="450" width="120" height="60" as="geometry" />
        </mxCell>
        <mxCell id="30Mocu9UOzXaOLm93GjV-12" style="edgeStyle=orthogonalEdgeStyle;rounded=0;orthogonalLoop=1;jettySize=auto;html=1;" parent="30Mocu9UOzXaOLm93GjV-21" source="30Mocu9UOzXaOLm93GjV-9" target="30Mocu9UOzXaOLm93GjV-11" edge="1">
          <mxGeometry relative="1" as="geometry" />
        </mxCell>
        <mxCell id="30Mocu9UOzXaOLm93GjV-13" value="Terdapat kritik saran terkait kuesioner?" style="rhombus;whiteSpace=wrap;html=1;" parent="30Mocu9UOzXaOLm93GjV-21" vertex="1">
          <mxGeometry y="540" width="195" height="80" as="geometry" />
        </mxCell>
        <mxCell id="30Mocu9UOzXaOLm93GjV-14" style="edgeStyle=orthogonalEdgeStyle;rounded=0;orthogonalLoop=1;jettySize=auto;html=1;entryX=0.5;entryY=0;entryDx=0;entryDy=0;" parent="30Mocu9UOzXaOLm93GjV-21" source="30Mocu9UOzXaOLm93GjV-11" target="30Mocu9UOzXaOLm93GjV-13" edge="1">
          <mxGeometry relative="1" as="geometry" />
        </mxCell>
        <mxCell id="30Mocu9UOzXaOLm93GjV-18" style="edgeStyle=orthogonalEdgeStyle;rounded=0;orthogonalLoop=1;jettySize=auto;html=1;entryX=1;entryY=0.5;entryDx=0;entryDy=0;" parent="30Mocu9UOzXaOLm93GjV-21" source="30Mocu9UOzXaOLm93GjV-16" target="30Mocu9UOzXaOLm93GjV-11" edge="1">
          <mxGeometry relative="1" as="geometry">
            <Array as="points">
              <mxPoint x="317.5" y="480" />
            </Array>
          </mxGeometry>
        </mxCell>
        <mxCell id="30Mocu9UOzXaOLm93GjV-16" value="Memperbaiki kuesioner" style="rounded=0;whiteSpace=wrap;html=1;" parent="30Mocu9UOzXaOLm93GjV-21" vertex="1">
          <mxGeometry x="257.5" y="550" width="120" height="60" as="geometry" />
        </mxCell>
        <mxCell id="30Mocu9UOzXaOLm93GjV-17" style="edgeStyle=orthogonalEdgeStyle;rounded=0;orthogonalLoop=1;jettySize=auto;html=1;entryX=0;entryY=0.5;entryDx=0;entryDy=0;" parent="30Mocu9UOzXaOLm93GjV-21" source="30Mocu9UOzXaOLm93GjV-13" target="30Mocu9UOzXaOLm93GjV-16" edge="1">
          <mxGeometry relative="1" as="geometry" />
        </mxCell>
        <mxCell id="30Mocu9UOzXaOLm93GjV-19" value="Ya" style="text;html=1;strokeColor=none;fillColor=none;align=center;verticalAlign=middle;whiteSpace=wrap;rounded=0;" parent="30Mocu9UOzXaOLm93GjV-21" vertex="1">
          <mxGeometry x="195" y="550" width="60" height="30" as="geometry" />
        </mxCell>
        <mxCell id="30Mocu9UOzXaOLm93GjV-27" style="edgeStyle=orthogonalEdgeStyle;rounded=0;orthogonalLoop=1;jettySize=auto;html=1;" parent="1" source="30Mocu9UOzXaOLm93GjV-22" target="30Mocu9UOzXaOLm93GjV-25" edge="1">
          <mxGeometry relative="1" as="geometry" />
        </mxCell>
        <mxCell id="30Mocu9UOzXaOLm93GjV-22" value="Melakukan uji validitas." style="rounded=0;whiteSpace=wrap;html=1;" parent="1" vertex="1">
          <mxGeometry x="167.5" y="740" width="120" height="60" as="geometry" />
        </mxCell>
        <mxCell id="30Mocu9UOzXaOLm93GjV-23" style="edgeStyle=orthogonalEdgeStyle;rounded=0;orthogonalLoop=1;jettySize=auto;html=1;" parent="1" source="30Mocu9UOzXaOLm93GjV-13" target="30Mocu9UOzXaOLm93GjV-22" edge="1">
          <mxGeometry relative="1" as="geometry" />
        </mxCell>
        <mxCell id="30Mocu9UOzXaOLm93GjV-24" value="Tidak" style="text;html=1;strokeColor=none;fillColor=none;align=center;verticalAlign=middle;whiteSpace=wrap;rounded=0;" parent="1" vertex="1">
          <mxGeometry x="227.5" y="700" width="60" height="30" as="geometry" />
        </mxCell>
        <mxCell id="30Mocu9UOzXaOLm93GjV-29" style="edgeStyle=orthogonalEdgeStyle;rounded=0;orthogonalLoop=1;jettySize=auto;html=1;" parent="1" source="30Mocu9UOzXaOLm93GjV-25" target="30Mocu9UOzXaOLm93GjV-28" edge="1">
          <mxGeometry relative="1" as="geometry" />
        </mxCell>
        <mxCell id="30Mocu9UOzXaOLm93GjV-33" style="edgeStyle=orthogonalEdgeStyle;rounded=0;orthogonalLoop=1;jettySize=auto;html=1;entryX=0;entryY=0.5;entryDx=0;entryDy=0;" parent="1" source="30Mocu9UOzXaOLm93GjV-25" target="30Mocu9UOzXaOLm93GjV-30" edge="1">
          <mxGeometry relative="1" as="geometry" />
        </mxCell>
        <mxCell id="30Mocu9UOzXaOLm93GjV-25" value="Apakah R hitung &amp;gt; R tabel?" style="rhombus;whiteSpace=wrap;html=1;" parent="1" vertex="1">
          <mxGeometry x="133.75" y="830" width="187.5" height="80" as="geometry" />
        </mxCell>
        <mxCell id="30Mocu9UOzXaOLm93GjV-37" style="edgeStyle=orthogonalEdgeStyle;rounded=0;orthogonalLoop=1;jettySize=auto;html=1;entryX=0.5;entryY=0;entryDx=0;entryDy=0;" parent="1" source="30Mocu9UOzXaOLm93GjV-28" target="30Mocu9UOzXaOLm93GjV-35" edge="1">
          <mxGeometry relative="1" as="geometry" />
        </mxCell>
        <mxCell id="30Mocu9UOzXaOLm93GjV-28" value="Item pertanyaan valid." style="rounded=0;whiteSpace=wrap;html=1;" parent="1" vertex="1">
          <mxGeometry x="167.5" y="950" width="120" height="60" as="geometry" />
        </mxCell>
        <mxCell id="30Mocu9UOzXaOLm93GjV-34" style="edgeStyle=orthogonalEdgeStyle;rounded=0;orthogonalLoop=1;jettySize=auto;html=1;entryX=1;entryY=0.5;entryDx=0;entryDy=0;" parent="1" source="30Mocu9UOzXaOLm93GjV-30" target="30Mocu9UOzXaOLm93GjV-22" edge="1">
          <mxGeometry relative="1" as="geometry">
            <Array as="points">
              <mxPoint x="448" y="770" />
            </Array>
          </mxGeometry>
        </mxCell>
        <mxCell id="30Mocu9UOzXaOLm93GjV-30" value="Adaptasi kembali pertanyaan yang tidak valid." style="rounded=0;whiteSpace=wrap;html=1;" parent="1" vertex="1">
          <mxGeometry x="387.5" y="840" width="120" height="60" as="geometry" />
        </mxCell>
        <mxCell id="30Mocu9UOzXaOLm93GjV-31" value="Ya" style="text;html=1;strokeColor=none;fillColor=none;align=center;verticalAlign=middle;whiteSpace=wrap;rounded=0;" parent="1" vertex="1">
          <mxGeometry x="227.5" y="910" width="60" height="30" as="geometry" />
        </mxCell>
        <mxCell id="30Mocu9UOzXaOLm93GjV-32" value="Tidak" style="text;html=1;strokeColor=none;fillColor=none;align=center;verticalAlign=middle;whiteSpace=wrap;rounded=0;" parent="1" vertex="1">
          <mxGeometry x="321.25" y="840" width="60" height="30" as="geometry" />
        </mxCell>
        <mxCell id="30Mocu9UOzXaOLm93GjV-35" value="A" style="ellipse;whiteSpace=wrap;html=1;aspect=fixed;" parent="1" vertex="1">
          <mxGeometry x="207.5" y="1040" width="40" height="40" as="geometry" />
        </mxCell>
        <mxCell id="30Mocu9UOzXaOLm93GjV-40" style="edgeStyle=orthogonalEdgeStyle;rounded=0;orthogonalLoop=1;jettySize=auto;html=1;" parent="1" source="30Mocu9UOzXaOLm93GjV-38" target="30Mocu9UOzXaOLm93GjV-39" edge="1">
          <mxGeometry relative="1" as="geometry" />
        </mxCell>
        <mxCell id="30Mocu9UOzXaOLm93GjV-38" value="A" style="ellipse;whiteSpace=wrap;html=1;aspect=fixed;" parent="1" vertex="1">
          <mxGeometry x="720" y="80" width="40" height="40" as="geometry" />
        </mxCell>
        <mxCell id="30Mocu9UOzXaOLm93GjV-42" style="edgeStyle=orthogonalEdgeStyle;rounded=0;orthogonalLoop=1;jettySize=auto;html=1;" parent="1" source="30Mocu9UOzXaOLm93GjV-39" target="30Mocu9UOzXaOLm93GjV-41" edge="1">
          <mxGeometry relative="1" as="geometry" />
        </mxCell>
        <mxCell id="30Mocu9UOzXaOLm93GjV-58" style="edgeStyle=orthogonalEdgeStyle;rounded=0;orthogonalLoop=1;jettySize=auto;html=1;" parent="1" source="30Mocu9UOzXaOLm93GjV-39" target="30Mocu9UOzXaOLm93GjV-43" edge="1">
          <mxGeometry relative="1" as="geometry" />
        </mxCell>
        <mxCell id="30Mocu9UOzXaOLm93GjV-39" value="Melakukan uji reabilitas." style="rounded=0;whiteSpace=wrap;html=1;" parent="1" vertex="1">
          <mxGeometry x="680" y="160" width="120" height="60" as="geometry" />
        </mxCell>
        <mxCell id="30Mocu9UOzXaOLm93GjV-44" style="edgeStyle=orthogonalEdgeStyle;rounded=0;orthogonalLoop=1;jettySize=auto;html=1;entryX=0;entryY=0.5;entryDx=0;entryDy=0;" parent="1" source="30Mocu9UOzXaOLm93GjV-41" target="30Mocu9UOzXaOLm93GjV-43" edge="1">
          <mxGeometry relative="1" as="geometry" />
        </mxCell>
        <mxCell id="30Mocu9UOzXaOLm93GjV-48" style="edgeStyle=orthogonalEdgeStyle;rounded=0;orthogonalLoop=1;jettySize=auto;html=1;entryX=0.5;entryY=0;entryDx=0;entryDy=0;" parent="1" source="30Mocu9UOzXaOLm93GjV-41" target="30Mocu9UOzXaOLm93GjV-46" edge="1">
          <mxGeometry relative="1" as="geometry" />
        </mxCell>
        <mxCell id="30Mocu9UOzXaOLm93GjV-41" value="&lt;div&gt;Apakah nilai &lt;br&gt;&lt;/div&gt;&lt;div&gt;Cronbach Alpha &amp;gt; 0.7?&lt;/div&gt;" style="rhombus;whiteSpace=wrap;html=1;" parent="1" vertex="1">
          <mxGeometry x="646.25" y="250" width="187.5" height="80" as="geometry" />
        </mxCell>
        <mxCell id="30Mocu9UOzXaOLm93GjV-43" value="Hilangkan item yang tidak reliabel." style="rounded=0;whiteSpace=wrap;html=1;" parent="1" vertex="1">
          <mxGeometry x="887" y="260" width="120" height="60" as="geometry" />
        </mxCell>
        <mxCell id="30Mocu9UOzXaOLm93GjV-45" value="Tidak" style="text;html=1;strokeColor=none;fillColor=none;align=center;verticalAlign=middle;whiteSpace=wrap;rounded=0;" parent="1" vertex="1">
          <mxGeometry x="827" y="260" width="60" height="30" as="geometry" />
        </mxCell>
        <mxCell id="30Mocu9UOzXaOLm93GjV-51" style="edgeStyle=orthogonalEdgeStyle;rounded=0;orthogonalLoop=1;jettySize=auto;html=1;entryX=0.5;entryY=0;entryDx=0;entryDy=0;" parent="1" source="30Mocu9UOzXaOLm93GjV-46" target="30Mocu9UOzXaOLm93GjV-50" edge="1">
          <mxGeometry relative="1" as="geometry" />
        </mxCell>
        <mxCell id="30Mocu9UOzXaOLm93GjV-46" value="Instrumen reliabel." style="rounded=0;whiteSpace=wrap;html=1;" parent="1" vertex="1">
          <mxGeometry x="680" y="360" width="120" height="60" as="geometry" />
        </mxCell>
        <mxCell id="30Mocu9UOzXaOLm93GjV-47" value="Ya" style="text;html=1;strokeColor=none;fillColor=none;align=center;verticalAlign=middle;whiteSpace=wrap;rounded=0;" parent="1" vertex="1">
          <mxGeometry x="740" y="330" width="60" height="30" as="geometry" />
        </mxCell>
        <mxCell id="30Mocu9UOzXaOLm93GjV-53" style="edgeStyle=orthogonalEdgeStyle;rounded=0;orthogonalLoop=1;jettySize=auto;html=1;entryX=0.5;entryY=0;entryDx=0;entryDy=0;" parent="1" source="30Mocu9UOzXaOLm93GjV-50" target="30Mocu9UOzXaOLm93GjV-52" edge="1">
          <mxGeometry relative="1" as="geometry" />
        </mxCell>
        <mxCell id="30Mocu9UOzXaOLm93GjV-50" value="Intstrumen valid dan reliabel." style="shape=parallelogram;perimeter=parallelogramPerimeter;whiteSpace=wrap;html=1;fixedSize=1;" parent="1" vertex="1">
          <mxGeometry x="670" y="450" width="140" height="60" as="geometry" />
        </mxCell>
        <mxCell id="30Mocu9UOzXaOLm93GjV-55" style="edgeStyle=orthogonalEdgeStyle;rounded=0;orthogonalLoop=1;jettySize=auto;html=1;entryX=0.5;entryY=0;entryDx=0;entryDy=0;" parent="1" source="30Mocu9UOzXaOLm93GjV-52" target="30Mocu9UOzXaOLm93GjV-54" edge="1">
          <mxGeometry relative="1" as="geometry" />
        </mxCell>
        <mxCell id="30Mocu9UOzXaOLm93GjV-52" value="Meminta data mahasiswa IISMA pada pihak panitia." style="rounded=0;whiteSpace=wrap;html=1;" parent="1" vertex="1">
          <mxGeometry x="680" y="540" width="120" height="60" as="geometry" />
        </mxCell>
        <mxCell id="30Mocu9UOzXaOLm93GjV-57" style="edgeStyle=orthogonalEdgeStyle;rounded=0;orthogonalLoop=1;jettySize=auto;html=1;entryX=0.5;entryY=0;entryDx=0;entryDy=0;" parent="1" source="30Mocu9UOzXaOLm93GjV-54" target="30Mocu9UOzXaOLm93GjV-56" edge="1">
          <mxGeometry relative="1" as="geometry" />
        </mxCell>
        <mxCell id="30Mocu9UOzXaOLm93GjV-54" value="Menghitung jumlah sampel minimum." style="rounded=0;whiteSpace=wrap;html=1;" parent="1" vertex="1">
          <mxGeometry x="680" y="630" width="120" height="60" as="geometry" />
        </mxCell>
        <mxCell id="30Mocu9UOzXaOLm93GjV-60" style="edgeStyle=orthogonalEdgeStyle;rounded=0;orthogonalLoop=1;jettySize=auto;html=1;entryX=0.5;entryY=0;entryDx=0;entryDy=0;" parent="1" source="30Mocu9UOzXaOLm93GjV-56" target="30Mocu9UOzXaOLm93GjV-59" edge="1">
          <mxGeometry relative="1" as="geometry" />
        </mxCell>
        <mxCell id="30Mocu9UOzXaOLm93GjV-56" value="Melakukan penyebaran kuesioner." style="rounded=0;whiteSpace=wrap;html=1;" parent="1" vertex="1">
          <mxGeometry x="680" y="740" width="120" height="60" as="geometry" />
        </mxCell>
        <mxCell id="30Mocu9UOzXaOLm93GjV-62" style="edgeStyle=orthogonalEdgeStyle;rounded=0;orthogonalLoop=1;jettySize=auto;html=1;entryX=0.5;entryY=0;entryDx=0;entryDy=0;" parent="1" source="30Mocu9UOzXaOLm93GjV-59" target="30Mocu9UOzXaOLm93GjV-61" edge="1">
          <mxGeometry relative="1" as="geometry" />
        </mxCell>
        <mxCell id="30Mocu9UOzXaOLm93GjV-59" value="Mengumpulkan dan mengolah data." style="rounded=0;whiteSpace=wrap;html=1;" parent="1" vertex="1">
          <mxGeometry x="680" y="840" width="120" height="60" as="geometry" />
        </mxCell>
        <mxCell id="30Mocu9UOzXaOLm93GjV-64" style="edgeStyle=orthogonalEdgeStyle;rounded=0;orthogonalLoop=1;jettySize=auto;html=1;entryX=0.5;entryY=0;entryDx=0;entryDy=0;" parent="1" source="30Mocu9UOzXaOLm93GjV-61" target="30Mocu9UOzXaOLm93GjV-63" edge="1">
          <mxGeometry relative="1" as="geometry" />
        </mxCell>
        <mxCell id="30Mocu9UOzXaOLm93GjV-61" value="Melakukan analisis statistik" style="rounded=0;whiteSpace=wrap;html=1;" parent="1" vertex="1">
          <mxGeometry x="680" y="940" width="120" height="60" as="geometry" />
        </mxCell>
        <mxCell id="30Mocu9UOzXaOLm93GjV-63" value="B" style="ellipse;whiteSpace=wrap;html=1;aspect=fixed;" parent="1" vertex="1">
          <mxGeometry x="720" y="1040" width="40" height="40" as="geometry" />
        </mxCell>
        <mxCell id="KyZwXAGAoId8EeByalAJ-9" value="" style="group" vertex="1" connectable="0" parent="1">
          <mxGeometry x="1720" y="35" width="650" height="265" as="geometry" />
        </mxCell>
        <mxCell id="30Mocu9UOzXaOLm93GjV-2" value="Selesai" style="ellipse;whiteSpace=wrap;html=1;" parent="KyZwXAGAoId8EeByalAJ-9" vertex="1">
          <mxGeometry x="530" y="210" width="120" height="50" as="geometry" />
        </mxCell>
        <mxCell id="db3oscVhwd0wRgTahPHw-2" value="Mulai" style="ellipse;whiteSpace=wrap;html=1;" parent="KyZwXAGAoId8EeByalAJ-9" vertex="1">
          <mxGeometry x="7.5" y="5" width="120" height="50" as="geometry" />
        </mxCell>
        <mxCell id="db3oscVhwd0wRgTahPHw-3" value="Mengidentifikasi masalah dan tujuan penelitian." style="rounded=0;whiteSpace=wrap;html=1;" parent="KyZwXAGAoId8EeByalAJ-9" vertex="1">
          <mxGeometry x="180" width="120" height="60" as="geometry" />
        </mxCell>
        <mxCell id="db3oscVhwd0wRgTahPHw-4" style="edgeStyle=orthogonalEdgeStyle;rounded=0;orthogonalLoop=1;jettySize=auto;html=1;entryX=0;entryY=0.5;entryDx=0;entryDy=0;" parent="KyZwXAGAoId8EeByalAJ-9" source="db3oscVhwd0wRgTahPHw-2" target="db3oscVhwd0wRgTahPHw-3" edge="1">
          <mxGeometry relative="1" as="geometry" />
        </mxCell>
        <mxCell id="db3oscVhwd0wRgTahPHw-5" value="Melakukan studi literatur." style="rounded=0;whiteSpace=wrap;html=1;" parent="KyZwXAGAoId8EeByalAJ-9" vertex="1">
          <mxGeometry x="360" width="120" height="60" as="geometry" />
        </mxCell>
        <mxCell id="db3oscVhwd0wRgTahPHw-34" style="edgeStyle=orthogonalEdgeStyle;rounded=0;orthogonalLoop=1;jettySize=auto;html=1;entryX=0;entryY=0.5;entryDx=0;entryDy=0;" parent="KyZwXAGAoId8EeByalAJ-9" source="db3oscVhwd0wRgTahPHw-3" target="db3oscVhwd0wRgTahPHw-5" edge="1">
          <mxGeometry relative="1" as="geometry" />
        </mxCell>
        <mxCell id="db3oscVhwd0wRgTahPHw-35" value="&lt;p&gt;&lt;span&gt;Pengambilan data seleksi mahasiswa IISMA periode 2022&lt;/span&gt;&lt;/p&gt;" style="rounded=0;whiteSpace=wrap;html=1;" parent="KyZwXAGAoId8EeByalAJ-9" vertex="1">
          <mxGeometry x="530" width="120" height="60" as="geometry" />
        </mxCell>
        <mxCell id="db3oscVhwd0wRgTahPHw-36" style="edgeStyle=orthogonalEdgeStyle;rounded=0;orthogonalLoop=1;jettySize=auto;html=1;entryX=0;entryY=0.5;entryDx=0;entryDy=0;" parent="KyZwXAGAoId8EeByalAJ-9" source="db3oscVhwd0wRgTahPHw-5" target="db3oscVhwd0wRgTahPHw-35" edge="1">
          <mxGeometry relative="1" as="geometry" />
        </mxCell>
        <mxCell id="db3oscVhwd0wRgTahPHw-37" value="Menyusun kuesioner survei." style="rounded=0;whiteSpace=wrap;html=1;" parent="KyZwXAGAoId8EeByalAJ-9" vertex="1">
          <mxGeometry x="530" y="105" width="120" height="60" as="geometry" />
        </mxCell>
        <mxCell id="KyZwXAGAoId8EeByalAJ-1" style="edgeStyle=orthogonalEdgeStyle;rounded=0;orthogonalLoop=1;jettySize=auto;html=1;entryX=0.5;entryY=0;entryDx=0;entryDy=0;" edge="1" parent="KyZwXAGAoId8EeByalAJ-9" source="db3oscVhwd0wRgTahPHw-35" target="db3oscVhwd0wRgTahPHw-37">
          <mxGeometry relative="1" as="geometry" />
        </mxCell>
        <mxCell id="db3oscVhwd0wRgTahPHw-44" value="Melakukan penyebaran kuesioner." style="rounded=0;whiteSpace=wrap;html=1;" parent="KyZwXAGAoId8EeByalAJ-9" vertex="1">
          <mxGeometry x="360" y="105" width="120" height="60" as="geometry" />
        </mxCell>
        <mxCell id="KyZwXAGAoId8EeByalAJ-2" style="edgeStyle=orthogonalEdgeStyle;rounded=0;orthogonalLoop=1;jettySize=auto;html=1;entryX=1;entryY=0.5;entryDx=0;entryDy=0;" edge="1" parent="KyZwXAGAoId8EeByalAJ-9" source="db3oscVhwd0wRgTahPHw-37" target="db3oscVhwd0wRgTahPHw-44">
          <mxGeometry relative="1" as="geometry" />
        </mxCell>
        <mxCell id="db3oscVhwd0wRgTahPHw-47" value="&lt;i&gt;Data Preprocessing&lt;/i&gt;" style="rounded=0;whiteSpace=wrap;html=1;" parent="KyZwXAGAoId8EeByalAJ-9" vertex="1">
          <mxGeometry x="180" y="105" width="120" height="60" as="geometry" />
        </mxCell>
        <mxCell id="KyZwXAGAoId8EeByalAJ-3" style="edgeStyle=orthogonalEdgeStyle;rounded=0;orthogonalLoop=1;jettySize=auto;html=1;entryX=1;entryY=0.5;entryDx=0;entryDy=0;" edge="1" parent="KyZwXAGAoId8EeByalAJ-9" source="db3oscVhwd0wRgTahPHw-44" target="db3oscVhwd0wRgTahPHw-47">
          <mxGeometry relative="1" as="geometry" />
        </mxCell>
        <mxCell id="db3oscVhwd0wRgTahPHw-48" value="Melakukan analisis statistik" style="rounded=0;whiteSpace=wrap;html=1;" parent="KyZwXAGAoId8EeByalAJ-9" vertex="1">
          <mxGeometry y="105" width="120" height="60" as="geometry" />
        </mxCell>
        <mxCell id="KyZwXAGAoId8EeByalAJ-4" style="edgeStyle=orthogonalEdgeStyle;rounded=0;orthogonalLoop=1;jettySize=auto;html=1;entryX=1;entryY=0.5;entryDx=0;entryDy=0;" edge="1" parent="KyZwXAGAoId8EeByalAJ-9" source="db3oscVhwd0wRgTahPHw-47" target="db3oscVhwd0wRgTahPHw-48">
          <mxGeometry relative="1" as="geometry" />
        </mxCell>
        <mxCell id="db3oscVhwd0wRgTahPHw-51" value="Membuat model prediksi" style="rounded=0;whiteSpace=wrap;html=1;" parent="KyZwXAGAoId8EeByalAJ-9" vertex="1">
          <mxGeometry y="205" width="120" height="60" as="geometry" />
        </mxCell>
        <mxCell id="KyZwXAGAoId8EeByalAJ-5" style="edgeStyle=orthogonalEdgeStyle;rounded=0;orthogonalLoop=1;jettySize=auto;html=1;entryX=0.5;entryY=0;entryDx=0;entryDy=0;" edge="1" parent="KyZwXAGAoId8EeByalAJ-9" source="db3oscVhwd0wRgTahPHw-48" target="db3oscVhwd0wRgTahPHw-51">
          <mxGeometry relative="1" as="geometry" />
        </mxCell>
        <mxCell id="db3oscVhwd0wRgTahPHw-55" value="Menyusun analisis dan pembahasan" style="rounded=0;whiteSpace=wrap;html=1;" parent="KyZwXAGAoId8EeByalAJ-9" vertex="1">
          <mxGeometry x="180" y="205" width="120" height="60" as="geometry" />
        </mxCell>
        <mxCell id="KyZwXAGAoId8EeByalAJ-6" style="edgeStyle=orthogonalEdgeStyle;rounded=0;orthogonalLoop=1;jettySize=auto;html=1;entryX=0;entryY=0.5;entryDx=0;entryDy=0;" edge="1" parent="KyZwXAGAoId8EeByalAJ-9" source="db3oscVhwd0wRgTahPHw-51" target="db3oscVhwd0wRgTahPHw-55">
          <mxGeometry relative="1" as="geometry" />
        </mxCell>
        <mxCell id="KyZwXAGAoId8EeByalAJ-8" style="edgeStyle=orthogonalEdgeStyle;rounded=0;orthogonalLoop=1;jettySize=auto;html=1;" edge="1" parent="KyZwXAGAoId8EeByalAJ-9" source="db3oscVhwd0wRgTahPHw-57" target="30Mocu9UOzXaOLm93GjV-2">
          <mxGeometry relative="1" as="geometry" />
        </mxCell>
        <mxCell id="db3oscVhwd0wRgTahPHw-57" value="Membuat kesimpulan dan saran" style="rounded=0;whiteSpace=wrap;html=1;" parent="KyZwXAGAoId8EeByalAJ-9" vertex="1">
          <mxGeometry x="360" y="205" width="120" height="60" as="geometry" />
        </mxCell>
        <mxCell id="KyZwXAGAoId8EeByalAJ-7" style="edgeStyle=orthogonalEdgeStyle;rounded=0;orthogonalLoop=1;jettySize=auto;html=1;" edge="1" parent="KyZwXAGAoId8EeByalAJ-9" source="db3oscVhwd0wRgTahPHw-55" target="db3oscVhwd0wRgTahPHw-57">
          <mxGeometry relative="1" as="geometry" />
        </mxCell>
      </root>
    </mxGraphModel>
  </diagram>
</mxfile>
